<svg width="20" height="19" viewBox="0 0 20 19" fill="none" xmlns="http://www.w3.org/2000/svg">
<path fill-rule="evenodd" clip-rule="evenodd" d="M19.5808 9.82166C19.5808 12.6273 17.2992 14.9089 14.4935 14.9089C11.6914 14.9089 9.40625 12.6273 9.40625 9.82166C9.40625 7.01599 11.6914 4.73438 14.4935 4.73438C17.2992 4.73438 19.5808 7.01599 19.5808 9.82166ZM18.4899 9.82166C18.4899 7.61848 16.6967 5.82527 14.4935 5.82527C12.2903 5.82527 10.5007 7.61848 10.5007 9.82166C10.5007 12.0248 12.2903 13.818 14.4935 13.818C16.6967 13.818 18.4899 12.0248 18.4899 9.82166Z" fill="white" fill-opacity="0.9"/>
<path d="M17.2644 9.82148C17.2644 10.1209 17.0184 10.3669 16.7189 10.3669H15.047V12.0354C15.047 12.3384 14.8045 12.5844 14.5015 12.5844C14.202 12.5844 13.9561 12.3384 13.9561 12.0354V10.3669H12.2876C11.9846 10.3669 11.7422 10.1209 11.7422 9.82148C11.7422 9.52202 11.9846 9.27604 12.2876 9.27604H13.9561V7.60761C13.9561 7.30458 14.202 7.05859 14.5015 7.05859C14.8045 7.05859 15.047 7.30458 15.047 7.60761V9.27604H16.7189C17.0184 9.27604 17.2644 9.52202 17.2644 9.82148Z" fill="white" fill-opacity="0.9"/>
<path d="M13.9523 3.78575V1.76082H1.20027V17.4255L7.2822 13.5004C7.36776 13.4434 7.47114 13.4149 7.57809 13.4149C7.68148 13.4149 7.78486 13.4434 7.87399 13.5004L13.9523 17.4255V15.8569C14.316 15.8926 14.6832 15.8926 15.0432 15.8569V18.4273C15.0432 18.6269 14.9363 18.8123 14.7616 18.9086C14.6796 18.9513 14.5905 18.9727 14.4978 18.9727C14.3944 18.9727 14.291 18.9442 14.2019 18.8872L7.57809 14.6091L0.950719 18.8872C0.783163 18.9941 0.569263 19.0048 0.394577 18.9086C0.216326 18.8123 0.109375 18.6269 0.109375 18.4273V1.21537C0.109375 0.912343 0.351798 0.669922 0.654825 0.669922H14.4978C14.8008 0.669922 15.0432 0.912343 15.0432 1.21537V3.78575C14.6796 3.7501 14.316 3.7501 13.9523 3.78575Z" fill="white" fill-opacity="0.9"/>
</svg>
