<svg width="37" height="35" viewBox="0 0 37 35" fill="none" xmlns="http://www.w3.org/2000/svg">
    <path
        d="M29.0073 8.83414C26.0394 6.3783 22.0514 4.93527 17.8439 4.79413C13.6365 4.65299 9.51913 5.82437 6.31749 8.07337C3.11585 10.3226 1.06678 13.4831 0.580476 16.922C0.0941884 20.3607 1.20672 23.8232 3.69529 26.6159V32.155C3.69132 32.6576 3.86567 33.1503 4.19745 33.5726C4.52896 33.995 5.00331 34.3286 5.56209 34.5324C5.97694 34.6885 6.42749 34.7699 6.88393 34.7712C7.65064 34.7688 8.39013 34.5365 8.96401 34.1182L12.3598 31.6824C13.9306 32.0693 15.562 32.2646 17.2018 32.2622C20.5039 32.2622 23.7317 31.4575 26.4775 29.9495C29.223 28.4416 31.3632 26.2983 32.6268 23.7905C33.8903 21.2827 34.2211 18.5233 33.5768 15.8611C32.9326 13.1991 31.3422 10.7536 29.0073 8.83414ZM17.2018 30.0797C16.4074 30.0797 15.6144 30.0243 14.8313 29.9142C13.7235 29.7572 12.6429 29.4906 11.6132 29.1202L9.43236 30.6889L7.09145 32.3647C6.99356 32.4356 6.85439 32.4525 6.7356 32.4086C6.61654 32.3645 6.54034 32.2672 6.54008 32.16V26.0362L6.43346 25.9339C4.38805 23.9185 3.23981 21.3902 3.17817 18.7661C3.11679 16.1419 4.14544 13.5791 6.0948 11.5004C8.04417 9.42162 10.7976 7.95164 13.9008 7.33269C17.0037 6.71395 20.2707 6.98341 23.1616 8.09651C26.0531 9.20982 28.3965 11.1002 29.8045 13.4558C31.2129 15.8114 31.6018 18.4913 30.9073 21.0529C30.2128 23.6147 28.4761 25.9052 25.9843 27.5464C23.4928 29.1876 20.3949 30.0813 17.2018 30.0797Z"
        fill="white" />
    <ellipse cx="28.3623" cy="8.72986" rx="5.56928" ry="5.58874" fill="#F51380" />
    <path
        d="M28.3623 15.6038C32.1521 15.6038 35.2168 12.522 35.2168 8.72986C35.2168 4.9377 32.1521 1.85589 28.3623 1.85589C24.5724 1.85589 21.5077 4.9377 21.5077 8.72986C21.5077 12.522 24.5724 15.6038 28.3623 15.6038Z"
        stroke="#110F0F" stroke-opacity="0.7" stroke-width="2.57044" />
</svg>