<svg width="15" height="15" viewBox="0 0 15 15" fill="none" xmlns="http://www.w3.org/2000/svg">
    <g clip-path="url(#clip0_153_19935)">
        <path
            d="M6.61187 3.81452C6.61187 3.44908 6.90587 3.15508 7.27131 3.15508C7.63674 3.15508 7.93074 3.44908 7.93074 3.81452V7.19964L10.2745 8.7603C10.5767 8.96363 10.6592 9.37303 10.4339 9.67527C10.2553 9.97752 9.84586 10.0599 9.54362 9.83464L6.90587 8.07614C6.72178 7.97722 6.61187 7.77115 6.61187 7.52661V3.81452ZM7.27131 0.517334C11.1565 0.517334 14.3053 3.66615 14.3053 7.55134C14.3053 11.4365 11.1565 14.5853 7.27131 14.5853C3.38612 14.5853 0.237305 11.4365 0.237305 7.55134C0.237305 3.66615 3.38612 0.517334 7.27131 0.517334ZM1.55618 7.55134C1.55618 10.7084 4.11425 13.2665 7.27131 13.2665C10.4284 13.2665 12.9864 10.7084 12.9864 7.55134C12.9864 4.39428 10.4284 1.83621 7.27131 1.83621C4.11425 1.83621 1.55618 4.39428 1.55618 7.55134Z"
            fill="white" />
    </g>
    <defs>
        <clipPath id="clip0_153_19935">
            <rect width="14.068" height="14.068" fill="white"
                transform="translate(0.234863 0.516846)" />
        </clipPath>
    </defs>
</svg>
    