<svg width="30" height="29" viewBox="0 0 30 29" fill="none" xmlns="http://www.w3.org/2000/svg">
<path d="M8 17.1049H17.3298V15.3164H8V17.1049ZM8 13.2299H22.3077V11.4414H8V13.2299ZM8 9.3549H22.3077V7.56643H8V9.3549ZM3.23077 26.6135V4.55586C3.23077 4.09881 3.40962 3.68647 3.76731 3.31884C4.125 2.95121 4.54231 2.7674 5.01924 2.7674H25.2885C25.7455 2.7674 26.1579 2.95121 26.5255 3.31884C26.8931 3.68647 27.0769 4.09881 27.0769 4.55586V20.0559C27.0769 20.5129 26.8931 20.9252 26.5255 21.2929C26.1579 21.6605 25.7455 21.8443 25.2885 21.8443H8L3.23077 26.6135ZM5.01924 22.2914L7.25481 20.0559H25.2885V4.55586H5.01924V22.2914ZM5.01924 4.55586V22.2914V4.55586Z" fill="#8E8E8E"/>
</svg>
