<svg width="25" height="25" viewBox="0 0 25 25" fill="none" xmlns="http://www.w3.org/2000/svg">
<path d="M1.90625 17.371V3.31392C1.90625 3.07879 2.01541 2.84367 2.23374 2.60855C2.45207 2.37342 2.6788 2.25586 2.91392 2.25586H15.9885C16.2404 2.25586 16.4755 2.36922 16.6939 2.59595C16.9122 2.82268 17.0214 3.062 17.0214 3.31392V12.2822C17.0214 12.5173 16.9122 12.7525 16.6939 12.9876C16.4755 13.2227 16.2404 13.3403 15.9885 13.3403H5.93695L1.90625 17.371ZM6.96981 18.3786C6.73469 18.3786 6.50376 18.2611 6.27704 18.026C6.05031 17.7908 5.93695 17.5557 5.93695 17.3206V14.8518H18.5329V6.28656H21.0521C21.2872 6.28656 21.5139 6.40412 21.7322 6.63924C21.9506 6.87437 22.0597 7.11789 22.0597 7.36981V22.3842L18.0542 18.3786H6.96981Z" fill="white"/>
</svg>
