<svg width="16" height="14" viewBox="0 0 16 14" fill="none" xmlns="http://www.w3.org/2000/svg">
    <g clip-path="url(#clip0_153_19933)">
        <path
            d="M4.39821 6.99103C4.39821 5.16985 5.97262 3.69384 7.91521 3.69384C9.8578 3.69384 11.4322 5.16985 11.4322 6.99103C11.4322 8.81221 9.8578 10.2882 7.91521 10.2882C5.97262 10.2882 4.39821 8.81221 4.39821 6.99103ZM7.91521 9.05177C9.12967 9.05177 10.1133 8.12959 10.1133 6.99103C10.1133 5.85247 9.12967 4.93028 7.91521 4.93028C7.89598 4.93028 7.87949 4.93028 7.83553 4.93028C7.89598 5.06166 7.91521 5.20076 7.91521 5.34243C7.91521 6.25174 7.12663 6.99103 6.15671 6.99103C6.00559 6.99103 5.85721 6.973 5.71708 6.91633C5.71708 6.95754 5.71708 6.973 5.71708 6.96784C5.71708 8.12959 6.70074 9.05177 7.91521 9.05177ZM2.62377 3.29715C3.91737 2.16992 5.6951 1.22095 7.91521 1.22095C10.1353 1.22095 11.913 2.16992 13.2072 3.29715C14.4931 4.4151 15.3531 5.7314 15.7598 6.67419C15.8504 6.87769 15.8504 7.10437 15.7598 7.30787C15.3531 8.22747 14.4931 9.54377 13.2072 10.6849C11.913 11.8132 10.1353 12.7611 7.91521 12.7611C5.6951 12.7611 3.91737 11.8132 2.62377 10.6849C1.33787 9.54377 0.4784 8.22747 0.0695764 7.30787C-0.020588 7.10437 -0.020588 6.87769 0.0695764 6.67419C0.4784 5.7314 1.33787 4.4151 2.62377 3.29715ZM7.91521 2.45739C6.12374 2.45739 4.65099 3.21987 3.52171 4.2013C2.46386 5.12348 1.73353 6.19507 1.3604 6.99103C1.73353 7.76381 2.46386 8.85857 3.52171 9.78076C4.65099 10.7622 6.12374 11.5247 7.91521 11.5247C9.70668 11.5247 11.1794 10.7622 12.3087 9.78076C13.3666 8.85857 14.0727 7.76381 14.4711 6.99103C14.0727 6.19507 13.3666 5.12348 12.3087 4.2013C11.1794 3.21987 9.70668 2.45739 7.91521 2.45739Z"
            fill="white" />
    </g>
    <defs>
        <clipPath id="clip0_153_19933">
            <rect width="15.8265" height="13.1888" fill="white" transform="translate(0 0.39624)" />
        </clipPath>
    </defs>
</svg>
    