<svg width="22" height="24" viewBox="0 0 22 24" fill="none" xmlns="http://www.w3.org/2000/svg">
<path d="M18.1889 4.16016L16.3339 9.20132L15.1438 12.4342L12.0938 4.16016H18.1889Z" fill="white"/>
<path d="M12.6698 1.69543L11.4508 3.52083L11.3111 3.49524L8.42969 2.98344L10.6269 1.3457L12.6698 1.69543Z" fill="white"/>
<path d="M18.6935 3.31184L17.6094 1.69543L19.6523 1.3457L21.8495 2.98344L18.9681 3.49524L18.8284 3.52083L18.6935 3.31184Z" fill="white"/>
<path d="M12.2188 3.55351L13.2113 2.06505L13.4041 1.7793H16.8684L18.0538 3.55351H12.2188Z" fill="white"/>
<path d="M21.885 3.59375L16.2812 11.2877L18.9024 4.16099L18.9217 4.1226L19.1963 4.07143L21.885 3.59375Z" fill="white"/>
<path d="M13.9944 11.2877L8.39062 3.59375L11.0793 4.07143L11.3587 4.1226L11.3732 4.16099L13.2042 9.12966L13.9944 11.2877Z" fill="white"/>
<path d="M13.2389 1.17434L12.5788 1.06346L12.2656 1.00801L13.5377 0.773438L16.7901 0.781965L18.0091 1.00801L17.5706 1.08478L17.031 1.17434H13.2389Z" fill="white"/>
<path fill-rule="evenodd" clip-rule="evenodd" d="M2.83053 23.6159L0.328125 17.4289L2.53613 16.6702L4.82443 22.3464L2.83053 23.6159ZM3.13832 17.1225C3.75388 16.8307 4.02152 16.5972 4.51665 16.1303C6.24291 14.5252 8.43754 14.4084 10.6322 15.532C11.6626 16.0719 12.6662 16.3783 13.6029 16.5972C14.3657 16.7869 15.0883 16.9036 15.744 17.0496C16.1856 17.1371 16.5202 17.3852 16.6139 17.6478C16.8949 18.4504 15.7307 18.9757 15.1151 18.8589L13.6029 18.5817L12.2647 18.3336C11.4752 18.1877 10.7258 18.2315 10.0434 18.5379C9.80249 18.6401 9.90954 19.0486 10.137 18.9319C10.7927 18.6401 11.502 18.6109 12.1978 18.7422L15.0616 19.2675C15.9314 19.428 17.3766 18.6693 16.9752 17.5019C16.9083 17.3414 16.8146 17.1955 16.7075 17.0933C17.8316 16.4659 18.6479 15.3131 19.8523 14.4522C20.2671 14.1604 20.6418 14.102 20.9763 14.4522C21.6187 14.2041 22.1138 14.9337 21.6321 15.6487L19.9459 18.2169C19.2902 19.2091 18.9691 19.2675 17.8985 19.8804L14.5798 21.8211C13.6966 22.3318 12.5993 22.1859 11.6358 21.8795L8.47768 20.9018C7.47404 20.5954 6.63098 20.7413 6.00204 21.0331L4.90472 21.5584L3.11155 17.1371L3.13832 17.1225Z" fill="white"/>
</svg>
