<svg width="23" height="23" viewBox="0 0 23 23" fill="none" xmlns="http://www.w3.org/2000/svg">
<path d="M16.9508 20.1752H6.16654V8.35182L12.5863 1.70117L13.3483 2.30158C13.5177 2.42474 13.6293 2.56329 13.6832 2.71724C13.737 2.87119 13.764 3.04824 13.764 3.24837V3.4793L12.7248 8.35182H20.1606C20.5147 8.35182 20.8341 8.49423 21.119 8.77903C21.4038 9.06384 21.5462 9.38329 21.5462 9.73737V11.631C21.5462 11.8003 21.5269 11.9966 21.4884 12.2198C21.4499 12.443 21.3922 12.6393 21.3152 12.8087L18.6365 18.9975C18.498 19.3208 18.2709 19.5979 17.9553 19.8288C17.6397 20.0597 17.3048 20.1752 16.9508 20.1752ZM4.78099 8.35182V20.1752H2.14844V8.35182H4.78099Z" fill="white"/>
</svg>
