<svg width="23" height="23" viewBox="0 0 23 23" fill="none" xmlns="http://www.w3.org/2000/svg">
<path d="M17.6172 5.89889C17.6172 5.48292 17.9548 5.14258 18.3735 5.14258C18.7895 5.14258 19.1271 5.48292 19.1271 5.89889C19.1271 6.31756 18.7895 6.65519 18.3735 6.65519C17.9548 6.65519 17.6172 6.31756 17.6172 5.89889Z" fill="white"/>
<path d="M21.1427 10.9352C21.1427 11.3539 20.8051 11.6916 20.3891 11.6916C19.9704 11.6916 19.6328 11.3539 19.6328 10.9352C19.6328 10.5193 19.9704 10.1816 20.3891 10.1816C20.8051 10.1816 21.1427 10.5193 21.1427 10.9352Z" fill="white"/>
<path d="M20.6406 4.38447C20.6406 3.9685 20.9783 3.63086 21.3969 3.63086C21.8129 3.63086 22.1532 3.9685 22.1532 4.38447C22.1532 4.80314 21.8129 5.14077 21.3969 5.14077C20.9783 5.14077 20.6406 4.80314 20.6406 4.38447Z" fill="white"/>
<path d="M21.6454 17.486C21.6454 17.9047 21.3078 18.2423 20.8891 18.2423C20.4732 18.2423 20.1328 17.9047 20.1328 17.486C20.1328 17.0701 20.4732 16.7324 20.8891 16.7324C21.3078 16.7324 21.6454 17.0701 21.6454 17.486Z" fill="white"/>
<path d="M14.1222 14.8736C14.6219 16.1161 14.6462 17.1803 14.0871 17.7394C13.9629 17.8637 13.7819 17.969 13.6441 18.0203C13.6441 18.023 1.13534 22.2476 1.13534 22.2476C1.08942 22.2638 1.0381 22.2719 0.986779 22.2719C0.849023 22.2719 0.722072 22.2179 0.630234 22.126C0.538397 22.0342 0.484375 21.9072 0.484375 21.7695C0.484375 21.7182 0.492478 21.6668 0.508685 21.6209C0.508685 21.6209 1.00299 20.1596 1.65125 18.2364C2.05912 18.7523 2.5129 19.2656 3.0018 19.7544L4.00931 18.7469C3.31243 18.0501 2.69117 17.3046 2.21308 16.5753C2.49399 15.7433 2.78571 14.8817 3.06663 14.0524C3.64466 15.1194 4.51171 16.2241 5.52193 17.2343L6.52944 16.2268C5.39227 15.0897 4.45769 13.8309 4.00931 12.6992C3.90127 12.4237 3.82834 12.159 3.78782 11.9159C4.33884 10.2871 4.73591 9.11212 4.73591 9.11212C4.78723 8.97436 4.89257 8.79339 5.01682 8.66914C5.7083 7.97765 7.1723 8.18024 8.78756 9.0662C8.96043 8.28828 9.04956 7.48065 9.04956 6.65412C9.04956 4.80926 8.60118 2.83206 7.75303 1.2087C7.55856 0.838647 7.70171 0.382162 8.07176 0.190383C8.44181 -0.00409574 8.8983 0.139063 9.09278 0.509113C10.0517 2.34856 10.5595 4.56617 10.5595 6.65412C10.5595 9.10131 9.8815 11.3918 8.63089 13.3718C8.22303 12.9531 7.88809 12.529 7.61258 12.1292C7.9097 11.6052 8.1636 11.0596 8.37159 10.4978C7.30735 9.88463 6.4376 9.67665 6.02433 9.67665C6.03784 10.3384 6.63478 12.2994 8.54446 14.2118C10.4568 16.1215 12.4178 16.7184 13.0796 16.7319C13.0796 16.4429 12.977 15.9297 12.7069 15.2814C13.1768 15.0978 13.636 14.9654 14.1222 14.8736Z" fill="white"/>
<path d="M12.7989 8.89019C14.9328 6.75903 16.1051 3.90666 16.1051 0.859824C16.1051 0.441153 16.4427 0.103516 16.8614 0.103516C17.2774 0.103516 17.6177 0.441153 17.6177 0.859824C17.6177 4.30913 16.2861 7.54235 13.8686 9.95983C13.72 10.1057 13.5282 10.1813 13.3338 10.1813C13.142 10.1813 12.9475 10.1057 12.7989 9.95983C12.5045 9.66271 12.5045 9.18461 12.7989 8.89019Z" fill="white"/>
<path d="M5.62683 5.29318C5.40804 4.92043 5.5485 4.44504 5.93476 4.23435C6.32372 4.02367 6.81532 4.15872 7.03411 4.53147C7.35824 5.0933 7.53921 5.74967 7.53921 6.37903C7.53921 6.8085 7.17726 7.15694 6.73428 7.15694C6.2886 7.15694 6.0266 6.8085 6.0266 6.37903C6.0266 6.01168 5.82131 5.62542 5.62683 5.29318Z" fill="white"/>
<path d="M16.9775 8.77395C17.7365 8.32286 19.1033 7.78534 20.3134 7.66379C20.7321 7.62328 21.0994 7.9258 21.1399 8.34177C21.1805 8.75774 20.8779 9.12779 20.462 9.16831C19.5355 9.26014 18.374 9.70312 17.7528 10.0732C17.6312 10.1461 17.4962 10.1812 17.3665 10.1812C17.1072 10.1812 16.856 10.0489 16.7155 9.81117C16.5021 9.45192 16.621 8.98733 16.9775 8.77395Z" fill="white"/>
<path d="M19.0242 16.8252C18.8837 17.0872 18.619 17.2357 18.3462 17.2357C18.2165 17.2357 18.0869 17.2033 17.9653 17.1331C17.6331 16.9386 17.2495 16.7333 16.8795 16.7333C16.45 16.7333 16.1016 16.4713 16.1016 16.0256C16.1016 15.5827 16.45 15.2207 16.8795 15.2207C17.5115 15.2207 18.1679 15.4017 18.727 15.7258C19.1025 15.9446 19.2348 16.4362 19.0242 16.8252Z" fill="white"/>
<path d="M11.5703 1.36178C11.5703 0.945807 11.9107 0.605469 12.3266 0.605469C12.7453 0.605469 13.0829 0.945807 13.0829 1.36178C13.0829 1.78045 12.7453 2.11808 12.3266 2.11808C11.9107 2.11808 11.5703 1.78045 11.5703 1.36178Z" fill="white"/>
<path d="M12.8266 4.13477C13.2426 4.13477 13.5802 4.4724 13.5802 4.89107C13.5802 5.30974 13.2426 5.64738 12.8266 5.64738C12.408 5.64738 12.0703 5.30974 12.0703 4.89107C12.0703 4.4724 12.408 4.13477 12.8266 4.13477Z" fill="white"/>
<path d="M22.5651 14.6845C22.4301 14.9411 22.1681 15.0896 21.8953 15.0896C21.7764 15.0896 21.6576 15.0626 21.5468 15.0032C19.9235 14.155 17.9463 13.7067 16.1014 13.7067C14.4024 13.7067 13.1626 13.9282 11.6365 14.6439C11.2583 14.8195 10.8073 14.6575 10.6317 14.2793C10.4534 13.9011 10.6155 13.4528 10.9936 13.2745C11.1233 13.2151 11.2502 13.1583 11.3772 13.1043C11.1368 12.8072 10.8667 12.502 10.5588 12.1967C10.5209 12.1562 10.4831 12.1211 10.4453 12.0833C10.6479 11.6106 10.8289 11.1271 10.9774 10.6328C11.1773 10.8111 11.3745 10.9948 11.5663 11.1892C12.0255 11.6457 12.436 12.1211 12.7953 12.5965C13.8352 12.3075 14.8751 12.1967 16.1014 12.1967C18.1894 12.1967 20.407 12.7046 22.2464 13.6634C22.6165 13.8579 22.7596 14.3144 22.5651 14.6845Z" fill="white"/>
</svg>
