<svg width="20" height="24" viewBox="0 0 20 24" fill="none" xmlns="http://www.w3.org/2000/svg">
<path d="M5.67469 16.3041C5.63152 16.2734 5.58937 16.2417 5.54689 16.2096C5.04819 15.8101 4.59432 15.3567 4.19298 14.8586C3.78 14.3121 3.43168 13.7179 3.15692 13.0901C2.90817 12.4684 2.7344 11.8205 2.63562 11.159C2.55637 10.4789 2.55655 9.79092 2.63615 9.11085C2.73551 8.4431 2.9145 7.79044 3.16508 7.16412C3.43816 6.54235 3.7844 5.95285 4.19462 5.4102C4.59692 4.9104 5.05423 4.45487 5.55599 4.05414C6.10321 3.64356 6.69616 3.29735 7.32557 3.02471C7.95144 2.77555 8.60342 2.60022 9.27041 2.50189C9.95453 2.42238 10.6451 2.42236 11.3292 2.50183C11.9996 2.60081 12.6548 2.77911 13.2836 3.02873C13.9078 3.30075 14.4995 3.64564 15.0443 4.05427C15.546 4.45501 16.0033 4.91055 16.4056 5.41037C16.8178 5.95547 17.1654 6.54611 17.4391 7.17308C17.6892 7.79652 17.8652 8.44598 17.9639 9.11038C18.0435 9.79043 18.0438 10.4784 17.9646 11.1585C17.865 11.824 17.688 12.4758 17.4385 13.1009C17.1657 13.7222 16.8225 14.3106 16.4124 14.8521C16.0054 15.3582 15.5442 15.8183 15.0368 16.2227C15 16.2503 14.9627 16.2776 14.9254 16.3041C14.7223 16.4507 14.5659 16.6111 14.4958 16.86C14.4351 17.0833 14.4631 17.3786 14.5892 17.5764C14.7176 17.7741 14.9091 17.9508 15.1472 18.0043C15.3784 18.0555 15.6679 18.0555 15.8664 17.9113C17.2066 16.9344 18.3204 15.6552 19.0044 14.1411C19.7002 12.6014 20.0225 10.8989 19.8427 9.21282C19.6816 7.70337 19.2006 6.2404 18.3647 4.96354C17.5498 3.71692 16.4548 2.65867 15.1683 1.90275C13.8491 1.12591 12.3525 0.688665 10.8254 0.59795C9.27037 0.504917 7.72705 0.823556 6.30958 1.45151C5.02307 2.02366 3.84862 2.91678 2.95203 4.00064C1.99239 5.16122 1.28259 6.51952 0.951065 7.99405C0.58916 9.60353 0.631188 11.3084 1.11217 12.89C1.59547 14.4809 2.50141 15.9531 3.72021 17.0905C4.03775 17.3882 4.381 17.658 4.73353 17.9161C4.91798 18.051 5.24253 18.0673 5.45268 18.0092C5.66982 17.9487 5.90332 17.7836 6.0107 17.5812C6.1251 17.3649 6.18348 17.1045 6.10409 16.8649C6.08892 16.8277 6.07316 16.7905 6.05741 16.7533C6.04164 16.7161 6.02588 16.6788 6.0107 16.6416C5.92664 16.4974 5.81478 16.3855 5.67469 16.3041ZM3.21605 13.234C3.20554 13.2091 3.19514 13.1841 3.18487 13.1591C3.19541 13.1841 3.20586 13.2091 3.21605 13.234ZM2.62068 11.0548C2.62424 11.0796 2.6278 11.1046 2.6313 11.1298C2.62765 11.1048 2.62411 11.0798 2.62068 11.0548ZM2.63749 11.175C2.64319 11.2173 2.64858 11.2596 2.65337 11.3013C2.64777 11.2592 2.64248 11.2171 2.63749 11.175ZM3.2254 7.01714C3.21571 7.04092 3.20577 7.0647 3.19575 7.08848C3.20553 7.06466 3.21541 7.04088 3.2254 7.01714ZM4.10099 5.5286C4.10982 5.51725 4.11866 5.50592 4.12754 5.4946L4.10099 5.5286ZM7.169 3.08882C7.19997 3.07578 7.231 3.06294 7.2621 3.05027C7.23107 3.0633 7.20004 3.07626 7.169 3.08882ZM9.38011 2.48643C9.34969 2.49076 9.31894 2.49509 9.2881 2.4993C9.31874 2.49485 9.34941 2.49056 9.38011 2.48643ZM9.25953 2.50316C9.21703 2.50884 9.17452 2.51422 9.13262 2.51899C9.17489 2.51341 9.2172 2.50813 9.25953 2.50316ZM13.4311 3.08882C13.4073 3.07916 13.3834 3.06927 13.3595 3.05929C13.3834 3.06903 13.4073 3.07887 13.4311 3.08882ZM14.9254 3.96102C14.9368 3.96979 14.9482 3.9786 14.9595 3.98743L14.9254 3.96102ZM16.4991 5.5286L16.4726 5.49461C16.4815 5.50592 16.4903 5.51725 16.4991 5.5286ZM17.3747 7.01714C17.3878 7.04801 17.4007 7.07894 17.4134 7.10994C17.4003 7.07901 17.3873 7.04807 17.3747 7.01714ZM17.9794 9.21969C17.9751 9.18942 17.9708 9.15882 17.9665 9.12815C17.971 9.15863 17.9753 9.18915 17.9794 9.21969ZM17.9626 9.09947C17.9569 9.05717 17.9515 9.01486 17.9468 8.97316C17.9524 9.01523 17.9576 9.05733 17.9626 9.09947ZM17.3841 13.234C17.3915 13.2157 17.3991 13.1974 17.4068 13.1791C17.3993 13.1974 17.3917 13.2158 17.3841 13.234ZM5.64056 3.98745C5.65191 3.97861 5.66328 3.9698 5.67468 3.96102L5.64056 3.98745Z" fill="white"/>
<path d="M5.67469 16.3041C5.63152 16.2734 5.58937 16.2417 5.54689 16.2096C5.04819 15.8101 4.59432 15.3567 4.19298 14.8586C3.78 14.3121 3.43168 13.7179 3.15692 13.0901C2.90817 12.4684 2.7344 11.8205 2.63562 11.159C2.55637 10.4789 2.55655 9.79092 2.63615 9.11085C2.73551 8.4431 2.9145 7.79044 3.16508 7.16412C3.43816 6.54235 3.7844 5.95285 4.19462 5.4102C4.59692 4.9104 5.05423 4.45487 5.55599 4.05414C6.10321 3.64356 6.69616 3.29735 7.32557 3.02471C7.95144 2.77555 8.60342 2.60022 9.27041 2.50189C9.95453 2.42238 10.6451 2.42236 11.3292 2.50183C11.9996 2.60081 12.6548 2.77911 13.2836 3.02873C13.9078 3.30075 14.4995 3.64564 15.0443 4.05427C15.546 4.45501 16.0033 4.91055 16.4056 5.41037C16.8178 5.95547 17.1654 6.54611 17.4391 7.17308C17.6892 7.79652 17.8652 8.44598 17.9639 9.11038C18.0435 9.79043 18.0438 10.4784 17.9646 11.1585C17.865 11.824 17.688 12.4758 17.4385 13.1009C17.1657 13.7222 16.8225 14.3106 16.4124 14.8521C16.0054 15.3582 15.5442 15.8183 15.0368 16.2227C15 16.2503 14.9627 16.2776 14.9254 16.3041C14.7223 16.4507 14.5659 16.6111 14.4958 16.86C14.4351 17.0833 14.4631 17.3786 14.5892 17.5764C14.7176 17.7741 14.9091 17.9508 15.1472 18.0043C15.3784 18.0555 15.6679 18.0555 15.8664 17.9113C17.2066 16.9344 18.3204 15.6552 19.0044 14.1411C19.7002 12.6014 20.0225 10.8989 19.8427 9.21282C19.6816 7.70337 19.2006 6.2404 18.3647 4.96354C17.5498 3.71692 16.4548 2.65867 15.1683 1.90275C13.8491 1.12591 12.3525 0.688665 10.8254 0.59795C9.27037 0.504917 7.72705 0.823556 6.30958 1.45151C5.02307 2.02366 3.84862 2.91678 2.95203 4.00064C1.99239 5.16122 1.28259 6.51952 0.951065 7.99405C0.58916 9.60353 0.631188 11.3084 1.11217 12.89C1.59547 14.4809 2.50141 15.9531 3.72021 17.0905C4.03775 17.3882 4.381 17.658 4.73353 17.9161C4.91798 18.051 5.24253 18.0673 5.45268 18.0092C5.66982 17.9487 5.90332 17.7836 6.0107 17.5812C6.1251 17.3649 6.18348 17.1045 6.10409 16.8649C6.08892 16.8277 6.07316 16.7905 6.05741 16.7533C6.04164 16.7161 6.02588 16.6788 6.0107 16.6416C5.92664 16.4974 5.81478 16.3855 5.67469 16.3041ZM3.21605 13.234C3.20554 13.2091 3.19514 13.1841 3.18487 13.1591C3.19541 13.1841 3.20586 13.2091 3.21605 13.234ZM2.62068 11.0548C2.62424 11.0796 2.6278 11.1046 2.6313 11.1298C2.62765 11.1048 2.62411 11.0798 2.62068 11.0548ZM2.63749 11.175C2.64319 11.2173 2.64858 11.2596 2.65337 11.3013C2.64777 11.2592 2.64248 11.2171 2.63749 11.175ZM3.2254 7.01714C3.21571 7.04092 3.20577 7.0647 3.19575 7.08848C3.20553 7.06466 3.21541 7.04088 3.2254 7.01714ZM4.10099 5.5286C4.10982 5.51725 4.11866 5.50592 4.12754 5.4946L4.10099 5.5286ZM7.169 3.08882C7.19997 3.07578 7.231 3.06294 7.2621 3.05027C7.23107 3.0633 7.20004 3.07626 7.169 3.08882ZM9.38011 2.48643C9.34969 2.49076 9.31894 2.49509 9.2881 2.4993C9.31874 2.49485 9.34941 2.49056 9.38011 2.48643ZM9.25953 2.50316C9.21703 2.50884 9.17452 2.51422 9.13262 2.51899C9.17489 2.51341 9.2172 2.50813 9.25953 2.50316ZM13.4311 3.08882C13.4073 3.07916 13.3834 3.06927 13.3595 3.05929C13.3834 3.06903 13.4073 3.07887 13.4311 3.08882ZM14.9254 3.96102C14.9368 3.96979 14.9482 3.9786 14.9595 3.98743L14.9254 3.96102ZM16.4991 5.5286L16.4726 5.49461C16.4815 5.50592 16.4903 5.51725 16.4991 5.5286ZM17.3747 7.01714C17.3878 7.04801 17.4007 7.07894 17.4134 7.10994C17.4003 7.07901 17.3873 7.04807 17.3747 7.01714ZM17.9794 9.21969C17.9751 9.18942 17.9708 9.15882 17.9665 9.12815C17.971 9.15863 17.9753 9.18915 17.9794 9.21969ZM17.9626 9.09947C17.9569 9.05717 17.9515 9.01486 17.9468 8.97316C17.9524 9.01523 17.9576 9.05733 17.9626 9.09947ZM17.3841 13.234C17.3915 13.2157 17.3991 13.1974 17.4068 13.1791C17.3993 13.1974 17.3917 13.2158 17.3841 13.234ZM5.64056 3.98745C5.65191 3.97861 5.66328 3.9698 5.67468 3.96102L5.64056 3.98745Z" stroke="#AAAAAA"/>
<path d="M14.585 15.0039C15.4256 14.276 16.0396 13.3294 16.4179 12.2897C16.7985 11.2431 16.8522 10.1127 16.6724 9.02194C16.3665 7.16591 15.1384 5.48435 13.5016 4.56103C12.6214 4.06565 11.6407 3.78887 10.6344 3.73073C9.6094 3.67026 8.60308 3.88657 7.66448 4.28893C5.92966 5.03086 4.59412 6.60546 4.07811 8.40564C3.78158 9.44064 3.7629 10.5454 3.99172 11.5967C4.22754 12.6805 4.77859 13.6899 5.52105 14.5132C5.67749 14.6877 5.84793 14.8505 6.02536 15.0063C6.21449 15.1691 6.4293 15.2784 6.68615 15.2784C6.91497 15.2784 7.18816 15.1761 7.34694 15.0063C7.51038 14.8296 7.6318 14.597 7.62012 14.3481C7.60845 14.1109 7.5314 13.8504 7.34694 13.6899C7.10051 13.4766 6.8733 13.2442 6.66683 12.9926C6.4239 12.664 6.2162 12.3114 6.04968 11.9394C5.90402 11.5665 5.79866 11.1799 5.73627 10.7848C5.69222 10.3778 5.69216 9.96845 5.73607 9.56306C5.79831 9.16848 5.90346 8.78372 6.04887 8.41139C6.21579 8.03837 6.42127 7.68576 6.66532 7.35781C6.90658 7.06265 7.17547 6.79261 7.47071 6.55269C7.80341 6.30701 8.16154 6.09763 8.54066 5.92902C8.9174 5.7833 9.30682 5.67949 9.70619 5.61623C10.1096 5.57351 10.5167 5.57382 10.92 5.61717C11.3162 5.67918 11.7024 5.78392 12.0762 5.92877C12.4507 6.09504 12.8047 6.29973 13.1339 6.54284C13.4302 6.78317 13.7013 7.05102 13.9422 7.34512C14.1888 7.67652 14.399 8.03325 14.5682 8.4109C14.7144 8.78579 14.8185 9.17331 14.8821 9.57073C14.9248 9.97176 14.9249 10.3751 14.8822 10.7747C14.819 11.1711 14.7154 11.559 14.5701 11.9331C14.4016 12.3075 14.1945 12.6623 13.9503 12.9928C13.7439 13.2443 13.5168 13.4766 13.2704 13.6899C13.0976 13.8387 12.9972 14.1248 12.9972 14.3481C12.9972 14.576 13.1 14.8482 13.2704 15.0063C13.4479 15.1691 13.6814 15.2901 13.9312 15.2784C14.181 15.2645 14.3889 15.1738 14.5849 15.004L14.585 15.0039ZM6.57177 12.8735L6.59062 12.8977C6.58432 12.8896 6.57804 12.8816 6.57177 12.8735ZM6.10011 12.0641C6.09387 12.0492 6.08769 12.0343 6.08158 12.0193C6.08783 12.0342 6.09402 12.0492 6.10011 12.0641ZM5.71953 10.671C5.72235 10.6906 5.72517 10.7104 5.72796 10.7303C5.72504 10.7106 5.72223 10.6908 5.71953 10.671ZM5.74041 10.8219C5.74461 10.8539 5.74859 10.8859 5.75222 10.9175C5.74801 10.8856 5.74408 10.8538 5.74041 10.8219ZM6.10011 8.28467C6.09399 8.29969 6.08777 8.31471 6.08149 8.32973C6.08763 8.31469 6.09384 8.29967 6.10011 8.28467ZM7.5804 6.46589L7.55789 6.48332C7.56538 6.47749 7.57288 6.47168 7.5804 6.46589ZM8.41394 5.97981C8.42877 5.97366 8.44363 5.96757 8.4585 5.96154C8.44365 5.9677 8.42879 5.9738 8.41394 5.97981ZM9.81019 5.6007C9.8037 5.60163 9.79719 5.60255 9.79066 5.60347C9.79717 5.60254 9.80368 5.60162 9.81019 5.6007ZM9.66166 5.62112C9.6285 5.62544 9.59541 5.62954 9.56269 5.63326C9.59565 5.62893 9.62864 5.62488 9.66166 5.62112ZM12.2034 5.97981C12.1883 5.97371 12.1733 5.96752 12.1582 5.96126C12.1733 5.96738 12.1884 5.97356 12.2034 5.97981ZM14.0293 7.45436L14.0118 7.432C14.0177 7.43943 14.0235 7.44689 14.0293 7.45436ZM14.5172 8.28467C14.5234 8.29936 14.5295 8.31408 14.5355 8.32881C14.5293 8.3141 14.5232 8.29938 14.5172 8.28467ZM14.8978 9.67551C14.8969 9.66906 14.896 9.66259 14.8951 9.65611C14.896 9.66258 14.8969 9.66904 14.8978 9.67551ZM14.8769 9.5246C14.8727 9.49255 14.8688 9.46059 14.8651 9.42897C14.8693 9.46083 14.8733 9.49271 14.8769 9.5246ZM14.5172 12.0641C14.5232 12.0495 14.5292 12.0349 14.5353 12.0204C14.5294 12.035 14.5233 12.0496 14.5172 12.0641ZM14.0456 12.8735C14.0393 12.8816 14.0331 12.8896 14.0268 12.8976L14.0456 12.8735Z" fill="white"/>
<path d="M14.585 15.0039C15.4256 14.276 16.0396 13.3294 16.4179 12.2897C16.7985 11.2431 16.8522 10.1127 16.6724 9.02194C16.3665 7.16591 15.1384 5.48435 13.5016 4.56103C12.6214 4.06565 11.6407 3.78887 10.6344 3.73073C9.6094 3.67026 8.60308 3.88657 7.66448 4.28893C5.92966 5.03086 4.59412 6.60546 4.07811 8.40564C3.78158 9.44064 3.7629 10.5454 3.99172 11.5967C4.22754 12.6805 4.77859 13.6899 5.52105 14.5132C5.67749 14.6877 5.84793 14.8505 6.02536 15.0063C6.21449 15.1691 6.4293 15.2784 6.68615 15.2784C6.91497 15.2784 7.18816 15.1761 7.34694 15.0063C7.51038 14.8296 7.6318 14.597 7.62012 14.3481C7.60845 14.1109 7.5314 13.8504 7.34694 13.6899C7.10051 13.4766 6.8733 13.2442 6.66683 12.9926C6.4239 12.664 6.2162 12.3114 6.04968 11.9394C5.90402 11.5665 5.79866 11.1799 5.73627 10.7848C5.69222 10.3778 5.69216 9.96845 5.73607 9.56306C5.79831 9.16848 5.90346 8.78372 6.04887 8.41139C6.21579 8.03837 6.42127 7.68576 6.66532 7.35781C6.90658 7.06265 7.17547 6.79261 7.47071 6.55269C7.80341 6.30701 8.16154 6.09763 8.54066 5.92902C8.9174 5.7833 9.30682 5.67949 9.70619 5.61623C10.1096 5.57351 10.5167 5.57382 10.92 5.61717C11.3162 5.67918 11.7024 5.78392 12.0762 5.92877C12.4507 6.09504 12.8047 6.29973 13.1339 6.54284C13.4302 6.78317 13.7013 7.05102 13.9422 7.34512C14.1888 7.67652 14.399 8.03325 14.5682 8.4109C14.7144 8.78579 14.8185 9.17331 14.8821 9.57073C14.9248 9.97176 14.9249 10.3751 14.8822 10.7747C14.819 11.1711 14.7154 11.559 14.5701 11.9331C14.4016 12.3075 14.1945 12.6623 13.9503 12.9928C13.7439 13.2443 13.5168 13.4766 13.2704 13.6899C13.0976 13.8387 12.9972 14.1248 12.9972 14.3481C12.9972 14.576 13.1 14.8482 13.2704 15.0063C13.4479 15.1691 13.6814 15.2901 13.9312 15.2784C14.181 15.2645 14.3889 15.1738 14.5849 15.004L14.585 15.0039ZM6.57177 12.8735L6.59062 12.8977C6.58432 12.8896 6.57804 12.8816 6.57177 12.8735ZM6.10011 12.0641C6.09387 12.0492 6.08769 12.0343 6.08158 12.0193C6.08783 12.0342 6.09402 12.0492 6.10011 12.0641ZM5.71953 10.671C5.72235 10.6906 5.72517 10.7104 5.72796 10.7303C5.72504 10.7106 5.72223 10.6908 5.71953 10.671ZM5.74041 10.8219C5.74461 10.8539 5.74859 10.8859 5.75222 10.9175C5.74801 10.8856 5.74408 10.8538 5.74041 10.8219ZM6.10011 8.28467C6.09399 8.29969 6.08777 8.31471 6.08149 8.32973C6.08763 8.31469 6.09384 8.29967 6.10011 8.28467ZM7.5804 6.46589L7.55789 6.48332C7.56538 6.47749 7.57288 6.47168 7.5804 6.46589ZM8.41394 5.97981C8.42877 5.97366 8.44363 5.96757 8.4585 5.96154C8.44365 5.9677 8.42879 5.9738 8.41394 5.97981ZM9.81019 5.6007C9.8037 5.60163 9.79719 5.60255 9.79066 5.60347C9.79717 5.60254 9.80368 5.60162 9.81019 5.6007ZM9.66166 5.62112C9.6285 5.62544 9.59541 5.62954 9.56269 5.63326C9.59565 5.62893 9.62864 5.62488 9.66166 5.62112ZM12.2034 5.97981C12.1883 5.97371 12.1733 5.96752 12.1582 5.96126C12.1733 5.96738 12.1884 5.97356 12.2034 5.97981ZM14.0293 7.45436L14.0118 7.432C14.0177 7.43943 14.0235 7.44689 14.0293 7.45436ZM14.5172 8.28467C14.5234 8.29936 14.5295 8.31408 14.5355 8.32881C14.5293 8.3141 14.5232 8.29938 14.5172 8.28467ZM14.8978 9.67551C14.8969 9.66906 14.896 9.66259 14.8951 9.65611C14.896 9.66258 14.8969 9.66904 14.8978 9.67551ZM14.8769 9.5246C14.8727 9.49255 14.8688 9.46059 14.8651 9.42897C14.8693 9.46083 14.8733 9.49271 14.8769 9.5246ZM14.5172 12.0641C14.5232 12.0495 14.5292 12.0349 14.5353 12.0204C14.5294 12.035 14.5233 12.0496 14.5172 12.0641ZM14.0456 12.8735C14.0393 12.8816 14.0331 12.8896 14.0268 12.8976L14.0456 12.8735Z" stroke="#AAAAAA"/>
<path d="M12.9036 10.1331C12.9036 11.568 11.736 12.731 10.2955 12.731C8.85511 12.731 7.6875 11.568 7.6875 10.1331C7.6875 8.69825 8.85511 7.53516 10.2955 7.53516C11.736 7.53516 12.9036 8.69825 12.9036 10.1331Z" fill="white"/>
<path d="M12.2054 10.1318C12.2054 10.2504 12.1961 10.3691 12.1821 10.4877C12.1914 10.4249 12.1984 10.3644 12.2077 10.3016C12.1751 10.5295 12.1143 10.7528 12.0233 10.9645C12.0466 10.9086 12.07 10.8528 12.0933 10.797C12.028 10.9482 11.9509 11.0924 11.8575 11.2273C11.8342 11.2622 11.8108 11.2947 11.7875 11.3273C11.7198 11.4203 11.9112 11.1761 11.8015 11.3064C11.7524 11.3645 11.7011 11.4203 11.6474 11.4738C11.5937 11.5273 11.5376 11.5785 11.4793 11.6273C11.3485 11.7366 11.596 11.5459 11.5003 11.6134C11.4676 11.6366 11.4349 11.6622 11.3999 11.6831C11.2621 11.7738 11.1174 11.8529 10.9679 11.918L11.136 11.8483C10.9212 11.9367 10.6994 11.9995 10.4706 12.032C10.5336 12.0227 10.5943 12.0157 10.6574 12.0064C10.4192 12.0367 10.1811 12.0367 9.94293 12.0064C10.006 12.0157 10.0667 12.0227 10.1297 12.032C9.9009 11.9995 9.67677 11.939 9.46427 11.8483L9.63239 11.918C9.48062 11.8529 9.33586 11.7762 9.20044 11.6831C9.16542 11.6599 9.13273 11.6366 9.10004 11.6134C9.00664 11.5459 9.25181 11.7366 9.12105 11.6273C9.06268 11.5785 9.00664 11.5273 8.95294 11.4738C8.89924 11.4203 8.84787 11.3645 8.79884 11.3064C8.6891 11.1761 8.88056 11.4227 8.81285 11.3273C8.7895 11.2947 8.76382 11.2622 8.7428 11.2273C8.65174 11.0901 8.57235 10.9459 8.50698 10.797C8.53033 10.8528 8.55368 10.9086 8.57702 10.9645C8.4883 10.7505 8.42526 10.5295 8.39257 10.3016C8.40191 10.3644 8.40891 10.4249 8.41825 10.4877C8.3879 10.2504 8.3879 10.0132 8.41825 9.77599C8.40891 9.83879 8.40191 9.89925 8.39257 9.96205C8.42526 9.73412 8.48596 9.51086 8.57702 9.29919C8.55368 9.35501 8.53032 9.41083 8.50698 9.46665C8.57235 9.31547 8.64941 9.17127 8.7428 9.03638C8.76615 9.00149 8.7895 8.96893 8.81285 8.93637C8.88056 8.84334 8.6891 9.08755 8.79884 8.9573C8.84787 8.89916 8.89924 8.84334 8.95294 8.78984C9.00664 8.73635 9.06268 8.68518 9.12105 8.63634C9.25181 8.52702 9.00431 8.71774 9.10004 8.65029C9.13273 8.62703 9.16541 8.60145 9.20044 8.58052C9.3382 8.48981 9.48296 8.41073 9.63239 8.34561L9.46427 8.41539C9.67908 8.32701 9.90091 8.26421 10.1297 8.23165C10.0667 8.24095 10.006 8.24793 9.94293 8.25723C10.1811 8.22699 10.4192 8.22699 10.6574 8.25723C10.5943 8.24793 10.5336 8.24095 10.4706 8.23165C10.6994 8.26421 10.9235 8.32468 11.136 8.41539L10.9679 8.34561C11.1197 8.41073 11.2645 8.48749 11.3999 8.58052C11.4349 8.60378 11.4676 8.62704 11.5003 8.65029C11.5937 8.71774 11.3485 8.52703 11.4793 8.63634C11.5376 8.68518 11.5937 8.73635 11.6474 8.78984C11.7011 8.84334 11.7524 8.89916 11.8015 8.9573C11.9112 9.08755 11.7198 8.84101 11.7875 8.93637C11.8108 8.96893 11.8365 9.00149 11.8575 9.03638C11.9486 9.17361 12.028 9.31781 12.0933 9.46665C12.07 9.41083 12.0466 9.35501 12.0233 9.29919C12.112 9.51316 12.1751 9.73414 12.2077 9.96205C12.1984 9.89925 12.1914 9.83879 12.1821 9.77599C12.1984 9.89461 12.2054 10.0132 12.2054 10.1318C12.2077 10.497 12.5253 10.8459 12.9059 10.8296C13.2841 10.8133 13.6087 10.5226 13.6063 10.1318C13.6016 9.47595 13.4079 8.80148 13.0226 8.26655C12.607 7.68742 12.0606 7.26876 11.3882 7.01993C10.1437 6.55942 8.62133 6.96876 7.7808 7.9921C7.32084 8.55264 7.05233 9.19687 6.99393 9.92021C6.94023 10.5761 7.11534 11.2692 7.45858 11.8297C7.79013 12.3739 8.28981 12.8438 8.87584 13.1066C9.55063 13.4089 10.2674 13.4973 10.9959 13.3531C12.2661 13.0996 13.3495 11.9995 13.5479 10.7203C13.5783 10.5249 13.6039 10.3295 13.6039 10.1318C13.6063 9.76668 13.2794 9.41781 12.9035 9.4341C12.5252 9.45038 12.2078 9.7411 12.2054 10.1318Z" fill="white"/>
<path d="M10.4736 22.7196H10.1327C9.21274 22.7196 8.46094 21.9707 8.46094 21.0543V16.761C8.46094 15.8446 9.21274 15.0957 10.1327 15.0957H10.4736C11.3935 15.0957 12.1453 15.8446 12.1453 16.761V21.0543C12.1476 21.9707 11.3935 22.7196 10.4736 22.7196Z" fill="white"/>
<path d="M10.4642 22.0245C10.4244 22.0245 10.3845 22.0249 10.3446 22.0253C10.2275 22.0265 10.11 22.0277 9.99383 22.0186C9.91392 22.0028 9.836 21.9815 9.7597 21.955C9.69058 21.9215 9.62311 21.8844 9.55827 21.8408C9.54828 21.8341 9.5383 21.827 9.52831 21.8198C9.52063 21.8129 9.51292 21.8061 9.50522 21.7992C9.48254 21.7791 9.46004 21.7592 9.43919 21.7384C9.40879 21.7081 9.38148 21.6778 9.35474 21.6476C9.35078 21.6412 9.34756 21.6361 9.3458 21.6338C9.30189 21.5698 9.26287 21.5023 9.22874 21.4319C9.20029 21.3522 9.17749 21.2704 9.1608 21.1876C9.15103 21.0635 9.15227 20.9374 9.15351 20.8122C9.15392 20.7704 9.15434 20.7287 9.15434 20.6871V19.6405V17.2333C9.15434 17.1782 9.15353 17.1227 9.15273 17.0671C9.15064 16.9226 9.14854 16.777 9.16039 16.634C9.17621 16.5546 9.19759 16.4771 9.22413 16.4013C9.25775 16.3324 9.29498 16.2652 9.33879 16.2006C9.34545 16.1907 9.35263 16.1807 9.35984 16.1708C9.36677 16.1631 9.37363 16.1554 9.38048 16.1478C9.40066 16.1252 9.42068 16.1028 9.44152 16.082C9.47193 16.0517 9.50233 16.0245 9.53274 15.9979C9.53912 15.9939 9.54425 15.9907 9.54659 15.989C9.61076 15.9452 9.67859 15.9064 9.7492 15.8724C9.83143 15.8432 9.9158 15.8201 10.0013 15.8033C10.1944 15.7856 10.3996 15.7857 10.5925 15.8035C10.6737 15.8193 10.7527 15.8409 10.8302 15.8678C10.8993 15.9013 10.9667 15.9383 11.0316 15.982C11.0416 15.9886 11.0515 15.9958 11.0615 16.003C11.0692 16.0098 11.0769 16.0167 11.0846 16.0235C11.1073 16.0436 11.1298 16.0636 11.1507 16.0843C11.1811 16.1146 11.2084 16.1449 11.2351 16.1752C11.2391 16.1815 11.2423 16.1866 11.244 16.189C11.2879 16.2529 11.327 16.3205 11.3611 16.3908C11.3896 16.4705 11.4123 16.5523 11.429 16.6352C11.4388 16.7592 11.4376 16.8853 11.4363 17.0105C11.4359 17.0523 11.4355 17.0941 11.4355 17.1356V18.1822V20.5894C11.4355 20.6445 11.4363 20.7 11.4371 20.7557C11.4392 20.9001 11.4413 21.0458 11.4295 21.1887C11.4136 21.2682 11.3923 21.3456 11.3657 21.4215C11.3321 21.4903 11.2949 21.5575 11.2511 21.6221C11.2444 21.6321 11.2372 21.642 11.23 21.652C11.2231 21.6596 11.2162 21.6673 11.2094 21.675C11.1892 21.6976 11.1692 21.72 11.1483 21.7407C11.1179 21.771 11.0875 21.7982 11.0571 21.8249C11.0507 21.8288 11.0456 21.832 11.0432 21.8338C10.9791 21.8775 10.9112 21.9164 10.8406 21.9504C10.7569 21.98 10.6709 22.0035 10.5837 22.0203C10.5473 22.023 10.5107 22.0243 10.4735 22.0245C10.4704 22.0244 10.4673 22.0244 10.4641 22.0244L10.4642 22.0245ZM10.0836 22.0338C10.0798 22.0333 10.076 22.0327 10.0722 22.0321C10.076 22.0327 10.0798 22.0332 10.0836 22.0338ZM9.39016 21.6966C9.38716 21.6966 9.37989 21.6868 9.372 21.6748C9.38244 21.6874 9.39016 21.6966 9.39016 21.6966ZM9.145 16.7239C9.14554 16.7201 9.14609 16.7164 9.14666 16.7126C9.14611 16.7164 9.14556 16.7201 9.145 16.7239ZM9.48355 16.0332C9.48355 16.0302 9.49339 16.0229 9.50537 16.0151C9.49279 16.0255 9.48355 16.0332 9.48355 16.0332ZM11.1997 16.1262C11.2027 16.1262 11.21 16.136 11.2178 16.1479C11.2074 16.1354 11.1997 16.1262 11.1997 16.1262ZM11.1063 21.7896C11.1063 21.7926 11.0965 21.7998 11.0845 21.8077C11.0971 21.7973 11.1063 21.7896 11.1063 21.7896ZM10.5327 23.4183C11.1514 23.3942 11.7593 23.1358 12.1827 22.6827C12.5983 22.2385 12.8317 21.6616 12.8364 21.0546C12.838 20.7864 12.8374 20.5181 12.8369 20.2499C12.8367 20.1158 12.8364 19.9816 12.8364 19.8475V17.7496C12.8364 17.6366 12.839 17.522 12.8417 17.4069C12.8484 17.1169 12.8551 16.8232 12.8201 16.5402C12.7337 15.8355 12.3881 15.247 11.8114 14.826C11.3655 14.5004 10.8331 14.4004 10.2914 14.4004C9.75438 14.4004 9.22902 14.4981 8.78308 14.8167C8.27172 15.1819 7.88414 15.7238 7.78842 16.3541C7.7346 16.7062 7.74006 17.0679 7.74547 17.4265C7.7471 17.5346 7.74873 17.6424 7.74873 17.7495V19.8265C7.74873 19.9629 7.74847 20.0994 7.74821 20.2358C7.74769 20.5087 7.74717 20.7816 7.74873 21.0545C7.7534 21.6546 7.98222 22.2151 8.38146 22.6617C8.81105 23.1385 9.45083 23.4083 10.0883 23.4222C10.1708 23.4238 10.2545 23.4233 10.3377 23.4227C10.3793 23.4225 10.4207 23.4222 10.4618 23.4222C10.4856 23.4222 10.5092 23.4209 10.5327 23.4183ZM10.6598 22.0126C10.6701 22.0112 10.6803 22.0097 10.6907 22.0082C10.6804 22.0098 10.6701 22.0113 10.6598 22.0126Z" fill="white"/>
<path d="M10.4642 22.0245C10.4244 22.0245 10.3845 22.0249 10.3446 22.0253C10.2275 22.0265 10.11 22.0277 9.99383 22.0186C9.91392 22.0028 9.836 21.9815 9.7597 21.955C9.69058 21.9215 9.62311 21.8844 9.55827 21.8408C9.54828 21.8341 9.5383 21.827 9.52831 21.8198C9.52063 21.8129 9.51292 21.8061 9.50522 21.7992C9.48254 21.7791 9.46004 21.7592 9.43919 21.7384C9.40879 21.7081 9.38148 21.6778 9.35474 21.6476C9.35078 21.6412 9.34756 21.6361 9.3458 21.6338C9.30189 21.5698 9.26287 21.5023 9.22874 21.4319C9.20029 21.3522 9.17749 21.2704 9.1608 21.1876C9.15103 21.0635 9.15227 20.9374 9.15351 20.8122C9.15392 20.7704 9.15434 20.7287 9.15434 20.6871V19.6405V17.2333C9.15434 17.1782 9.15353 17.1227 9.15273 17.0671C9.15064 16.9226 9.14854 16.777 9.16039 16.634C9.17621 16.5546 9.19759 16.4771 9.22413 16.4013C9.25775 16.3324 9.29498 16.2652 9.33879 16.2006C9.34545 16.1907 9.35263 16.1807 9.35984 16.1708C9.36677 16.1631 9.37363 16.1554 9.38048 16.1478C9.40066 16.1252 9.42068 16.1028 9.44152 16.082C9.47193 16.0517 9.50233 16.0245 9.53274 15.9979C9.53912 15.9939 9.54425 15.9907 9.54659 15.989C9.61076 15.9452 9.67859 15.9064 9.7492 15.8724C9.83143 15.8432 9.9158 15.8201 10.0013 15.8033C10.1944 15.7856 10.3996 15.7857 10.5925 15.8035C10.6737 15.8193 10.7527 15.8409 10.8302 15.8678C10.8993 15.9013 10.9667 15.9383 11.0316 15.982C11.0416 15.9886 11.0515 15.9958 11.0615 16.003C11.0692 16.0098 11.0769 16.0167 11.0846 16.0235C11.1073 16.0436 11.1298 16.0636 11.1507 16.0843C11.1811 16.1146 11.2084 16.1449 11.2351 16.1752C11.2391 16.1815 11.2423 16.1866 11.244 16.189C11.2879 16.2529 11.327 16.3205 11.3611 16.3908C11.3896 16.4705 11.4123 16.5523 11.429 16.6352C11.4388 16.7592 11.4376 16.8853 11.4363 17.0105C11.4359 17.0523 11.4355 17.0941 11.4355 17.1356V18.1822V20.5894C11.4355 20.6445 11.4363 20.7 11.4371 20.7557C11.4392 20.9001 11.4413 21.0458 11.4295 21.1887C11.4136 21.2682 11.3923 21.3456 11.3657 21.4215C11.3321 21.4903 11.2949 21.5575 11.2511 21.6221C11.2444 21.6321 11.2372 21.642 11.23 21.652C11.2231 21.6596 11.2162 21.6673 11.2094 21.675C11.1892 21.6976 11.1692 21.72 11.1483 21.7407C11.1179 21.771 11.0875 21.7982 11.0571 21.8249C11.0507 21.8288 11.0456 21.832 11.0432 21.8338C10.9791 21.8775 10.9112 21.9164 10.8406 21.9504C10.7569 21.98 10.6709 22.0035 10.5837 22.0203C10.5473 22.023 10.5107 22.0243 10.4735 22.0245C10.4704 22.0244 10.4673 22.0244 10.4641 22.0244L10.4642 22.0245ZM10.0836 22.0338C10.0798 22.0333 10.076 22.0327 10.0722 22.0321C10.076 22.0327 10.0798 22.0332 10.0836 22.0338ZM9.39016 21.6966C9.38716 21.6966 9.37989 21.6868 9.372 21.6748C9.38244 21.6874 9.39016 21.6966 9.39016 21.6966ZM9.145 16.7239C9.14554 16.7201 9.14609 16.7164 9.14666 16.7126C9.14611 16.7164 9.14556 16.7201 9.145 16.7239ZM9.48355 16.0332C9.48355 16.0302 9.49339 16.0229 9.50537 16.0151C9.49279 16.0255 9.48355 16.0332 9.48355 16.0332ZM11.1997 16.1262C11.2027 16.1262 11.21 16.136 11.2178 16.1479C11.2074 16.1354 11.1997 16.1262 11.1997 16.1262ZM11.1063 21.7896C11.1063 21.7926 11.0965 21.7998 11.0845 21.8077C11.0971 21.7973 11.1063 21.7896 11.1063 21.7896ZM10.5327 23.4183C11.1514 23.3942 11.7593 23.1358 12.1827 22.6827C12.5983 22.2385 12.8317 21.6616 12.8364 21.0546C12.838 20.7864 12.8374 20.5181 12.8369 20.2499C12.8367 20.1158 12.8364 19.9816 12.8364 19.8475V17.7496C12.8364 17.6366 12.839 17.522 12.8417 17.4069C12.8484 17.1169 12.8551 16.8232 12.8201 16.5402C12.7337 15.8355 12.3881 15.247 11.8114 14.826C11.3655 14.5004 10.8331 14.4004 10.2914 14.4004C9.75438 14.4004 9.22902 14.4981 8.78308 14.8167C8.27172 15.1819 7.88414 15.7238 7.78842 16.3541C7.7346 16.7062 7.74006 17.0679 7.74547 17.4265C7.7471 17.5346 7.74873 17.6424 7.74873 17.7495V19.8265C7.74873 19.9629 7.74847 20.0994 7.74821 20.2358C7.74769 20.5087 7.74717 20.7816 7.74873 21.0545C7.7534 21.6546 7.98222 22.2151 8.38146 22.6617C8.81105 23.1385 9.45083 23.4083 10.0883 23.4222C10.1708 23.4238 10.2545 23.4233 10.3377 23.4227C10.3793 23.4225 10.4207 23.4222 10.4618 23.4222C10.4856 23.4222 10.5092 23.4209 10.5327 23.4183ZM10.6598 22.0126C10.6701 22.0112 10.6803 22.0097 10.6907 22.0082C10.6804 22.0098 10.6701 22.0113 10.6598 22.0126Z" stroke="#AAAAAA"/>
</svg>
