<svg width="31" height="31" viewBox="0 0 31 31" fill="none" xmlns="http://www.w3.org/2000/svg">
<path d="M19.0379 18.0697H11.8094C11.304 18.0697 10.8945 18.4791 10.8945 18.9839V29.956C10.8945 30.1984 10.9909 30.4309 11.1626 30.6024C11.334 30.774 11.5669 30.8703 11.8095 30.8703H19.038C19.2805 30.8703 19.5135 30.774 19.6848 30.6024C19.8565 30.4309 19.9529 30.1984 19.9529 29.956V18.9839C19.9529 18.7416 19.8565 18.5088 19.6848 18.3375C19.5135 18.166 19.2805 18.0697 19.038 18.0697L19.0379 18.0697ZM18.123 29.0418H12.7151V19.8984H18.132L18.123 29.0418Z" fill="white"/>
<path d="M19.2632 6.89423C20.5116 6.46754 21.595 5.66166 22.3628 4.5896C23.1306 3.51778 23.5439 2.23264 23.5455 0.914275C23.5455 0.671909 23.4492 0.439438 23.2775 0.267869C23.1058 0.0962994 22.8731 0 22.6306 0H8.19649C7.691 0 7.28125 0.409461 7.28125 0.914259C7.28348 2.23385 7.69835 3.51964 8.46773 4.59179C9.23714 5.66393 10.3228 6.46912 11.5725 6.89421C12.2261 7.95419 13.2891 8.69726 14.5097 8.94699V10.8397H13.5948C12.8762 10.8409 12.1872 11.127 11.6795 11.6353C11.1717 12.1436 10.8864 12.8325 10.8864 13.5506V15.3791C10.8864 15.6218 10.9828 15.8543 11.1545 16.0259C11.3262 16.1974 11.5588 16.2937 11.8014 16.2937H19.0299C19.2727 16.2937 19.5054 16.1974 19.677 16.0259C19.8484 15.8543 19.9448 15.6218 19.9448 15.3791V13.5506C19.9448 12.8325 19.6598 12.1437 19.1518 11.6353C18.644 11.127 17.9553 10.8409 17.2364 10.8397H16.3215V8.94699C17.5441 8.69856 18.609 7.9555 19.2632 6.89421L19.2632 6.89423ZM19.9404 1.81515H21.656C21.4339 2.89619 20.8237 3.85862 19.9404 4.52127V1.81515ZM10.9097 4.52127C10.0264 3.8586 9.41616 2.89619 9.19403 1.81515H10.9097V4.52127ZM17.2322 12.6455C17.4751 12.6455 17.7077 12.7418 17.8794 12.9131C18.0508 13.0846 18.1472 13.3171 18.1472 13.5598V14.474H12.7166V13.5598C12.7166 13.0547 13.1263 12.6455 13.6318 12.6455L17.2322 12.6455ZM15.4024 7.23253C14.6837 7.23126 13.9948 6.94521 13.487 6.43688C12.9793 5.92856 12.694 5.23975 12.694 4.52126V1.81514H18.1335V4.52159V4.52127C18.1335 5.23974 17.8485 5.92854 17.3405 6.43689C16.8327 6.94522 16.144 7.23127 15.4251 7.23254L15.4024 7.23253Z" fill="white"/>
<path d="M26.2645 5.42382C25.7593 5.42382 25.3496 5.83328 25.3496 6.33808V7.25234H24.4621C24.0182 7.32314 23.6914 7.70613 23.6914 8.15542C23.6914 8.6047 24.0182 8.98738 24.4621 9.05825H25.377V9.97251C25.377 10.4776 25.7868 10.8868 26.2919 10.8868C26.7974 10.8868 27.2072 10.4776 27.2072 9.97251V9.05825H28.1221C28.3867 9.10034 28.6563 9.02476 28.8602 8.85096C29.0638 8.67716 29.1813 8.423 29.1813 8.15545C29.1813 7.88758 29.0638 7.63342 28.8602 7.45962C28.6563 7.28614 28.3867 7.21024 28.1221 7.25233H27.2072V6.33807C27.2072 6.09571 27.1108 5.86292 26.9391 5.69167C26.7674 5.5201 26.5348 5.4238 26.2919 5.4238L26.2645 5.42382Z" fill="white"/>
<path d="M4.58629 3.61982C4.08111 3.61982 3.67137 4.02928 3.67137 4.53408V5.44834H2.75645V5.44865C2.49189 5.40624 2.22223 5.48214 2.01831 5.65594C1.8147 5.82942 1.69727 6.0839 1.69727 6.35145C1.69727 6.619 1.8147 6.87348 2.01831 7.04696C2.22223 7.22076 2.49189 7.29666 2.75645 7.25425H3.67137V8.16883C3.67137 8.67365 4.08113 9.08309 4.58629 9.08309C5.09178 9.08309 5.50153 8.67363 5.50153 8.16883V7.25458H6.41645V7.25426C6.86036 7.18346 7.18714 6.80078 7.18714 6.35143C7.18714 5.90207 6.86036 5.51946 6.41645 5.4486H5.50153V4.53401C5.50153 4.29165 5.40515 4.05917 5.23347 3.88761C5.06178 3.71604 4.82914 3.61974 4.58628 3.61974L4.58629 3.61982Z" fill="white"/>
<path d="M29.9523 21.7242H22.6552C22.15 21.7242 21.7402 22.1334 21.7402 22.6385V29.9166C21.7402 30.159 21.8366 30.3918 22.0083 30.563C22.18 30.7346 22.4126 30.8309 22.6552 30.8309H29.9523C30.1951 30.8309 30.4278 30.7346 30.5995 30.563C30.7708 30.3918 30.8672 30.159 30.8672 29.9166V22.6385C30.8672 22.3961 30.7708 22.1633 30.5995 21.9921C30.4278 21.8205 30.1951 21.7242 29.9523 21.7242L29.9523 21.7242ZM29.0374 29.0388H23.5474V23.5528H29.0374V29.0388Z" fill="white"/>
<path d="M8.19864 25.4078H0.915245C0.409748 25.4078 0 25.8173 0 26.3221V29.9339C0 30.1763 0.0963776 30.4091 0.268062 30.5803C0.439756 30.7519 0.672393 30.8482 0.915252 30.8482H8.19865C8.44119 30.8482 8.67383 30.7519 8.84552 30.5803C9.01721 30.4091 9.11358 30.1763 9.11358 29.9339V26.2994C9.10114 25.8032 8.69489 25.4078 8.19866 25.4078L8.19864 25.4078ZM7.28372 29.0193H1.79381L1.79349 27.2137H7.2834L7.28372 29.0193Z" fill="white"/>
</svg>
