<svg width="22" height="22" viewBox="0 0 22 22" fill="none" xmlns="http://www.w3.org/2000/svg">
<path d="M10.4623 13.6903L14.9408 10.8017L10.4623 7.913V13.6903ZM2.62482 19.9603C2.26653 19.9603 1.95303 19.826 1.68432 19.5572C1.41561 19.2885 1.28125 18.975 1.28125 18.6167V8.33847H2.62482V18.6167H16.262V19.9603H2.62482ZM5.31195 17.2732C4.95366 17.2732 4.64016 17.1388 4.37145 16.8701C4.10274 16.6014 3.96838 16.2879 3.96838 15.9296V4.33016H9.38743V2.49396C9.38743 2.13567 9.52178 1.82217 9.7905 1.55346C10.0592 1.28475 10.3727 1.15039 10.731 1.15039H14.2243C14.5825 1.15039 14.896 1.28475 15.1648 1.55346C15.4335 1.82217 15.5678 2.13567 15.5678 2.49396V4.33016H20.9869V15.9296C20.9869 16.2879 20.8525 16.6014 20.5838 16.8701C20.3151 17.1388 20.0016 17.2732 19.6433 17.2732H5.31195ZM10.731 4.33016H14.2243V2.49396H10.731V4.33016Z" fill="white"/>
</svg>
