<svg width="21" height="21" viewBox="0 0 21 21" fill="none" xmlns="http://www.w3.org/2000/svg">
<path d="M19.0325 6.52697C18.4434 6.78792 17.8097 6.96204 17.1413 7.04442C17.8208 6.64097 18.3436 5.9975 18.589 5.23735C17.9531 5.61008 17.2486 5.88394 16.4991 6.02822C15.9006 5.39365 15.047 5 14.1011 5C12.2843 5 10.8116 6.45973 10.8116 8.25967C10.8116 8.51439 10.8415 8.76243 10.8976 9.00334C8.16427 8.86619 5.74 7.56677 4.11817 5.59494C3.83318 6.07676 3.67286 6.64097 3.67286 7.23635C3.67286 8.36788 4.25221 9.36404 5.13571 9.95096C4.59644 9.93449 4.08878 9.78442 3.64436 9.54395C3.64436 9.55375 3.64436 9.56844 3.64436 9.58225C3.64436 11.1635 4.77857 12.4803 6.28194 12.78C6.00718 12.8553 5.71684 12.8971 5.41759 12.8971C5.20518 12.8971 4.99811 12.8731 4.79772 12.837C5.21631 14.1293 6.43067 15.0738 7.86947 15.1019C6.74372 15.9747 5.32586 16.4975 3.78419 16.4975C3.5179 16.4975 3.25739 16.4823 3 16.4512C4.45661 17.3734 6.1862 17.914 8.0427 17.914C14.0922 17.914 17.4018 12.9461 17.4018 8.63641C17.4018 8.49524 17.3973 8.35452 17.3907 8.21559C18.0364 7.75959 18.593 7.18425 19.0325 6.52697Z" fill="#03A9F4"/>
</svg>
