<svg width="21" height="21" viewBox="0 0 21 21" fill="none" xmlns="http://www.w3.org/2000/svg">
<path d="M18.5054 14.5746C18.3471 15.3821 17.6748 15.9975 16.8442 16.1128C15.5389 16.3049 13.3634 16.5357 10.9109 16.5357C8.49819 16.5357 6.32263 16.3049 4.97765 16.1128C4.14708 15.9975 3.4744 15.3821 3.31651 14.5746C3.15825 13.6903 3 12.3828 3 10.7678C3 9.15284 3.15825 7.84534 3.31651 6.96106C3.47476 6.15357 4.14708 5.53821 4.97765 5.42285C6.28298 5.23071 8.45853 5 10.9109 5C13.3634 5 15.4993 5.23071 16.8442 5.42285C17.6748 5.53821 18.3475 6.15357 18.5054 6.96106C18.6636 7.84534 18.8615 9.15284 18.8615 10.7678C18.8219 12.3828 18.6636 13.6903 18.5054 14.5746Z" fill="url(#paint0_linear_3101_13448)"/>
<path opacity="0.05" d="M13.9394 10.2061L9.81681 7.45769C9.60881 7.3189 9.34313 7.30592 9.12287 7.42416C8.90261 7.54204 8.76562 7.77023 8.76562 8.02005V13.5168C8.76562 13.7666 8.90261 13.9952 9.12287 14.113C9.22309 14.1668 9.33231 14.1931 9.44154 14.1931C9.57276 14.1931 9.70326 14.1549 9.81645 14.0795L13.939 11.3311C14.1275 11.2053 14.24 10.9952 14.24 10.7688C14.2404 10.542 14.1275 10.3319 13.9394 10.2061Z" fill="black"/>
<path opacity="0.07" d="M9.73154 7.60698L13.6212 10.2003C13.8696 10.3788 14.0369 10.5385 14.0369 10.7458C14.0369 10.953 13.9561 11.0976 13.7791 11.2267C13.6454 11.324 9.79751 13.8813 9.79751 13.8813C9.47271 14.099 8.94531 14.0529 8.94531 13.3409V8.15024C8.94531 7.42745 9.51633 7.4635 9.73154 7.60698Z" fill="black"/>
<path d="M9.125 13.4952V8.03916C9.125 7.77132 9.42349 7.61126 9.64663 7.76015L13.7389 10.4883C13.9383 10.621 13.9383 10.9137 13.7389 11.0467L9.64663 13.7749C9.42349 13.9231 9.125 13.7634 9.125 13.4952Z" fill="white"/>
<defs>
<linearGradient id="paint0_linear_3101_13448" x1="5.81759" y1="5.67448" x2="17.1478" y2="17.0047" gradientUnits="userSpaceOnUse">
<stop stop-color="#F44F5A"/>
<stop offset="0.443" stop-color="#EE3D4A"/>
<stop offset="1" stop-color="#E52030"/>
</linearGradient>
</defs>
</svg>
