<svg width="23" height="23" viewBox="0 0 23 23" fill="none" xmlns="http://www.w3.org/2000/svg">
<rect x="1.0349" y="1.06127" width="20.7388" height="20.7388" rx="0.797648" stroke="#444444" stroke-width="0.531765"/>
<path d="M11.5211 18.5436C9.61068 18.5436 7.96641 17.8546 6.58828 16.4765C5.21016 15.0983 4.52109 13.4541 4.52109 11.5436V10.5593L2.77109 12.3093L1.91797 11.4561L5.17734 8.19677L8.43672 11.4561L7.58359 12.3093L5.83359 10.5593V11.5436C5.83359 13.1041 6.39141 14.4421 7.50703 15.5577C8.62266 16.6733 9.96068 17.2311 11.5211 17.2311C11.944 17.2311 12.3451 17.1947 12.7242 17.1218C13.1034 17.0488 13.4607 16.9395 13.7961 16.7936L14.7367 17.7343C14.2117 18.0259 13.6831 18.2337 13.1508 18.3577C12.6185 18.4817 12.0753 18.5436 11.5211 18.5436V18.5436ZM17.843 14.8468L14.5836 11.5874L15.4586 10.7124L17.1867 12.4405V11.5436C17.1867 9.98322 16.6289 8.6452 15.5133 7.52958C14.3977 6.41395 13.0596 5.85614 11.4992 5.85614C11.0763 5.85614 10.6753 5.89624 10.2961 5.97645C9.91693 6.05666 9.55964 6.1551 9.22422 6.27176L8.28359 5.33114C8.80859 5.03947 9.33724 4.83531 9.86953 4.71864C10.4018 4.60197 10.9451 4.54364 11.4992 4.54364C13.4096 4.54364 15.0539 5.2327 16.432 6.61083C17.8102 7.98895 18.4992 9.63322 18.4992 11.5436V12.4843L20.2492 10.7343L21.1023 11.5874L17.843 14.8468Z" fill="white"/>
</svg>
