<svg width="24" height="24" viewBox="0 0 24 24" fill="none" xmlns="http://www.w3.org/2000/svg">
<path d="M10.0495 0.144847C6.87558 0.146204 3.89425 1.66683 2.02986 4.23499C0.165268 6.80342 -0.357405 10.1089 0.623987 13.1267C1.60566 16.1449 3.9723 18.511 6.99099 19.4916C10.0095 20.4719 13.3149 19.9481 15.8827 18.0827L20.8214 23.0214C21.2144 23.4144 21.7876 23.5679 22.3246 23.4242C22.8617 23.2801 23.281 22.8608 23.4251 22.3237C23.5689 21.7866 23.4153 21.2135 23.0223 20.8205L18.0837 15.8818C19.5261 13.8993 20.1821 11.4523 19.9252 9.0141C19.6681 6.57586 18.5163 4.31962 16.6922 2.68126C14.8682 1.0429 12.5013 0.139139 10.0498 0.144555L10.0495 0.144847ZM10.0495 16.8659C8.24458 16.8659 6.51373 16.149 5.2375 14.8728C3.96126 13.5966 3.24437 11.8657 3.24437 10.0608C3.24437 8.25597 3.96126 6.52511 5.2375 5.24888C6.51373 3.97265 8.24458 3.25575 10.0495 3.25575C11.8543 3.25575 13.5852 3.97265 14.8614 5.24888C16.1377 6.52511 16.8546 8.25597 16.8546 10.0608C16.8524 11.8649 16.135 13.5947 14.859 14.8704C13.5833 16.1463 11.8536 16.8638 10.0495 16.8659Z" fill="white" fill-opacity="0.79"/>
</svg>
