<svg width="22" height="25" viewBox="0 0 22 25" fill="none" xmlns="http://www.w3.org/2000/svg">
<g clip-path="url(#clip0_2409_15811)">
<path d="M16.9178 10.966C19.4594 10.966 21.5216 8.93606 21.5216 6.43408C21.5216 3.93211 19.4594 1.9022 16.9178 1.9022C14.3761 1.9022 12.3139 3.93211 12.3139 6.43408C12.3139 6.62291 12.3235 6.81174 12.3475 6.99585L7.83482 9.21458C7.00997 8.42622 5.88299 7.94471 4.64092 7.94471C2.09923 7.94471 0.0371094 9.97461 0.0371094 12.4766C0.0371094 14.9786 2.09923 17.0085 4.64092 17.0085C5.88299 17.0085 7.00997 16.527 7.83482 15.7386L12.3475 17.9573C12.3235 18.1414 12.3139 18.3255 12.3139 18.5191C12.3139 21.0211 14.3761 23.051 16.9178 23.051C19.4594 23.051 21.5216 21.0211 21.5216 18.5191C21.5216 16.0171 19.4594 13.9872 16.9178 13.9872C15.6757 13.9872 14.5487 14.4687 13.7239 15.2571L9.21116 13.0383C9.23514 12.8542 9.24473 12.6701 9.24473 12.4766C9.24473 12.283 9.23514 12.0989 9.21116 11.9148L13.7239 9.69609C14.5487 10.4844 15.6757 10.966 16.9178 10.966Z" fill="#919191"/>
</g>
<defs>
<clipPath id="clip0_2409_15811">
<rect width="21.4845" height="24.17" fill="white" transform="translate(0.0371094 0.391602)"/>
</clipPath>
</defs>
</svg>
