<svg width="28" height="27" viewBox="0 0 28 27" fill="none" xmlns="http://www.w3.org/2000/svg">
<path d="M7.40169 0.849449H21.6464V17.2758L12.7274 26.5156L11.4762 25.5211C11.3479 25.4141 11.2516 25.2644 11.1874 25.0719C11.1233 24.8794 11.0912 24.6441 11.0912 24.3661V24.0453L12.5349 17.2758H2.94219C2.42886 17.2758 1.97971 17.0833 1.59471 16.6983C1.20972 16.3133 1.01722 15.8642 1.01722 15.3508V12.7201C1.01722 12.5703 1.00118 12.4153 0.969099 12.2549C0.937017 12.0944 0.953058 11.9394 1.01722 11.7897L5.05965 2.48567C5.25214 2.03651 5.56763 1.65152 6.00609 1.33069C6.44455 1.00986 6.90975 0.849449 7.40169 0.849449ZM19.7214 2.77441H6.98461L2.94219 12.3671V15.3508H14.909L13.2087 23.3394L19.7214 16.4737V2.77441ZM19.7214 16.4737V2.77441V16.4737ZM21.6464 17.2758V15.3508H25.9134V2.77441H21.6464V0.849449H27.8384V17.2758H21.6464Z" fill="#8E8E8E"/>
</svg>
