<svg width="28" height="26" viewBox="0 0 28 26" fill="none" xmlns="http://www.w3.org/2000/svg">
<path d="M20.9681 25.9446H6.72497V9.52004L15.643 0.28125L16.8941 1.2757C17.0224 1.38263 17.1186 1.53234 17.1828 1.72481C17.2469 1.91729 17.279 2.15253 17.279 2.43055V2.75134L15.8354 9.52004H25.4271C25.9404 9.52004 26.3895 9.71251 26.7744 10.0975C27.1594 10.4824 27.3518 10.9315 27.3518 11.4448V14.0753C27.3518 14.225 27.3679 14.38 27.4 14.5404C27.432 14.7008 27.416 14.8559 27.3518 15.0056L23.3099 24.3085C23.1174 24.7576 22.802 25.1426 22.3635 25.4634C21.9251 25.7842 21.46 25.9446 20.9681 25.9446ZM8.64971 24.0198H21.3851L25.4271 14.4281V11.4448H13.4616L15.1618 3.45708L8.64971 10.322V24.0198ZM8.64971 10.322V24.0198V10.322ZM6.72497 9.52004V11.4448H2.45844V24.0198H6.72497V25.9446H0.533691V9.52004H6.72497Z" fill="#8E8E8E"/>
</svg>
